<svg focusable="false" width="233" height="47" xmlns="http://www.w3.org/2000/svg"><g fill="#000" fill-rule="nonzero"><path d="M232.515 21.29v-2.916h-3.454V14.18h-2.915v4.193h-2.714v2.915h2.714v8.404a4.44 4.44 0 0 0 4.441 4.44h1.928v-2.915h-1.928c-.845 0-1.526-.68-1.526-1.525v-8.404h3.454zM215.578 18.102a5.636 5.636 0 0 1 5.648 5.647v4.737c0 3.1-2.52 5.648-5.648 5.648h-1.094c-3.099 0-5.647-2.549-5.647-5.648V23.75c0-3.128 2.548-5.647 5.647-5.647h1.094zm-3.826 5.647v4.737a2.74 2.74 0 0 0 2.732 2.732h1.094a2.718 2.718 0 0 0 2.732-2.732V23.75a2.718 2.718 0 0 0-2.732-2.732h-1.094a2.737 2.737 0 0 0-2.732 2.732zM205.643 23.75v4.736a5.636 5.636 0 0 1-5.647 5.648h-.367a5.345 5.345 0 0 1-3.46-1.248v6.257h-2.915V18.368h2.915v.97a5.357 5.357 0 0 1 3.46-1.248h.367a5.657 5.657 0 0 1 5.647 5.66zm-2.915 0a2.737 2.737 0 0 0-2.732-2.733h-1.094c-1.49 0-2.733 1.248-2.733 2.732v4.737a2.74 2.74 0 0 0 2.733 2.732h1.094a2.718 2.718 0 0 0 2.732-2.732V23.75zM179.652 29.03a2.765 2.765 0 0 0 2.703 2.188h2.034c1.49 0 2.732-1.247 2.732-2.732 0-1.703-1.034-2.702-2.613-3.311l-2.673-1c-2.49-.97-4.554-2.614-4.554-5.712a5.636 5.636 0 0 1 5.648-5.648h1.425c2.614 0 4.831 1.792 5.464 4.252l-2.827.822a2.675 2.675 0 0 0-2.643-2.159h-1.425a2.718 2.718 0 0 0-2.732 2.733c0 1.182.425 2.093 2.761 3.004l2.673 1.035c2.703 1.094 4.406 3.158 4.406 5.984 0 3.129-2.549 5.648-5.648 5.648h-2.034c-2.643 0-4.861-1.822-5.5-4.282l2.803-.822zM174.094 21.29v-2.916h-3.454V14.18h-2.915v4.193h-2.715v2.915h2.715v8.404a4.44 4.44 0 0 0 4.44 4.44h1.929v-2.915h-1.928c-.846 0-1.526-.68-1.526-1.525v-8.404h3.454zM162.48 23.75v10.112h-2.916V23.749a2.718 2.718 0 0 0-2.733-2.732h-1.094a2.737 2.737 0 0 0-2.732 2.732v10.113h-2.915V13.087h2.915v6.257a5.357 5.357 0 0 1 3.46-1.248h.366a5.645 5.645 0 0 1 5.648 5.653zM146.311 18.374v15.4c0 3.128-2.49 5.647-5.618 5.647h-1.153a5.633 5.633 0 0 1-5.464-4.252l2.79-.822c.273 1.212 1.367 2.158 2.674 2.158h1.153c1.49 0 2.703-1.247 2.703-2.732v-1.821a5.357 5.357 0 0 1-3.46 1.248h-.367c-3.098 0-5.647-2.52-5.647-5.648v-3.797c0-3.128 2.549-5.647 5.647-5.647h.367c1.307 0 2.52.455 3.46 1.212v-.94h2.915v-.006zm-2.915 9.172v-3.797a2.718 2.718 0 0 0-2.733-2.732h-1.094a2.737 2.737 0 0 0-2.732 2.732v3.797c0 1.49 1.248 2.732 2.732 2.732h1.094a2.745 2.745 0 0 0 2.733-2.732zM121.201 18.374v10.112a2.718 2.718 0 0 0 2.733 2.732h1.094a2.718 2.718 0 0 0 2.732-2.732V18.374h2.915v10.112a5.636 5.636 0 0 1-5.647 5.648h-1.094a5.636 5.636 0 0 1-5.648-5.648V18.374h2.915zM109.22 18.102a5.636 5.636 0 0 1 5.648 5.647v4.737c0 3.1-2.52 5.648-5.648 5.648h-1.094c-3.099 0-5.647-2.549-5.647-5.648V23.75c0-3.128 2.548-5.647 5.647-5.647h1.094zm-3.826 5.647v4.737a2.74 2.74 0 0 0 2.732 2.732h1.094a2.718 2.718 0 0 0 2.732-2.732V23.75a2.718 2.718 0 0 0-2.732-2.732h-1.094a2.74 2.74 0 0 0-2.732 2.732zM99.108 23.75v10.112h-2.916V23.749a2.718 2.718 0 0 0-2.732-2.732h-1.094a2.737 2.737 0 0 0-2.732 2.732v10.113h-2.915V13.087h2.915v6.257a5.357 5.357 0 0 1 3.46-1.248h.366a5.648 5.648 0 0 1 5.648 5.653zM83.643 13.087v2.915h-5.842v17.86h-2.916v-17.86h-5.842v-2.915z"/><circle cx="41.207" cy="41.13" r="5.766"/><path d="M46.612 11.946H.485v2.88h15.86v31.709h2.88v-31.71h2.88v31.71h2.886v-31.71h2.88v31.71h2.886v-31.71h15.855zM.485 6.18h46.127v2.88H.485zM.485.414h46.127v2.88H.485z"/></g></svg>